<svg width="100" height="100" viewBox="0 0 100 100" fill="none" xmlns="http://www.w3.org/2000/svg">
<path d="M15.0619 72.4884C14.0453 72.4884 13.5369 71.8769 13.5369 70.655C13.5369 70.0634 13.639 69.5217 13.8411 69.03C14.0432 68.5363 14.2994 68.2884 14.6078 68.2884C14.7213 68.2884 14.8536 68.3259 15.0036 68.4009C14.664 69.2571 14.4953 70.0082 14.4953 70.655C14.4953 71.078 14.5703 71.4061 14.7203 71.6425C14.8703 71.878 15.0911 71.9967 15.3828 71.9967C15.638 71.9967 15.8588 71.8884 16.0453 71.6717C16.2338 71.455 16.4328 71.0696 16.6411 70.5134C16.9682 69.603 17.3463 68.2457 17.7744 66.4425C18.2015 64.6373 18.5338 63.1134 18.7703 61.8717C18.0723 61.88 17.5338 61.904 17.1536 61.9425C16.7723 61.979 16.3619 62.0498 15.9203 62.155C16.0223 61.4863 16.789 61.1509 18.2203 61.1509C18.7088 61.1509 19.2296 61.1842 19.7828 61.2509C20.338 61.3175 20.7994 61.3832 21.1661 61.4467C21.0713 61.6082 20.9182 61.7165 20.7078 61.7717C20.4963 61.828 20.2869 61.855 20.0786 61.855L19.0786 61.8717C19.1723 61.9467 19.2453 62.0488 19.2953 62.1759C19.3473 62.3009 19.3744 62.4207 19.3744 62.5342C19.3744 62.779 19.2765 63.403 19.0828 64.405C18.8911 65.405 18.6421 66.4696 18.3369 67.5967C18.0307 68.7248 17.7098 69.6655 17.3744 70.4175C17.0244 71.2071 16.6661 71.7478 16.2994 72.0425C15.9328 72.3394 15.5203 72.4884 15.0619 72.4884Z" fill="#423F3F"/>
<path d="M21.2904 71.8965C20.7372 71.8965 20.3122 71.7434 20.0154 71.4382C19.7216 71.133 19.5737 70.7403 19.5737 70.259C19.5737 69.7069 19.757 69.1111 20.1237 68.4715C20.4904 67.8299 20.9529 67.2913 21.5112 66.8549C22.0695 66.4194 22.6164 66.2007 23.1529 66.2007C23.7362 66.2007 24.0279 66.4871 24.0279 67.059C24.0279 67.5205 23.8539 67.9507 23.507 68.3507C23.1591 68.7507 22.7122 69.0778 22.1654 69.3299C21.6206 69.583 21.0758 69.7382 20.532 69.7965C20.4925 69.9549 20.4737 70.1246 20.4737 70.3049C20.4737 70.6413 20.5581 70.9236 20.7279 71.1507C20.8966 71.3757 21.1841 71.4882 21.5904 71.4882C22.1622 71.4882 22.7404 71.2496 23.3237 70.7715C23.907 70.2913 24.382 69.6986 24.7487 68.9924L24.9154 69.1174C24.5404 69.9538 24.0175 70.6257 23.3487 71.134C22.682 71.6424 21.9956 71.8965 21.2904 71.8965ZM20.6029 69.5257C20.9966 69.3871 21.4091 69.1913 21.8404 68.9382C22.2737 68.683 22.6425 68.384 22.9487 68.0424C23.2539 67.6986 23.407 67.3371 23.407 66.959C23.407 66.8486 23.3862 66.7674 23.3445 66.7174C23.3029 66.6653 23.2247 66.6382 23.1112 66.6382C22.8195 66.6382 22.5008 66.784 22.157 67.0757C21.8154 67.3653 21.5008 67.7361 21.2154 68.1882C20.9289 68.6382 20.7247 69.084 20.6029 69.5257Z" fill="#423F3F"/>
<path d="M29.019 71.5592C28.6992 71.5592 28.4544 71.4758 28.2856 71.3092C28.1158 71.1456 28.0315 70.9279 28.0315 70.655C28.0315 70.5331 28.0523 70.3904 28.094 70.2258C28.1377 70.0623 28.1836 69.8998 28.2315 69.7383C28.2867 69.5696 28.3356 69.3915 28.3773 69.205C28.419 69.0165 28.4398 68.8467 28.4398 68.6967C28.4398 68.2363 28.2523 68.005 27.8773 68.005C27.519 68.005 27.144 68.1946 26.7523 68.5717C26.3627 68.9467 26.0158 69.3654 25.7106 69.8258C25.4075 70.2842 25.0627 70.8383 24.6773 71.4883C24.5158 71.4883 24.3711 71.4613 24.2398 71.4092C24.1065 71.3592 24.0023 71.2811 23.9273 71.1758C23.9273 71.129 23.9888 70.9592 24.1106 70.6675C24.3471 70.0675 24.5398 69.5217 24.6898 69.03C24.8398 68.5363 24.92 68.0956 24.9315 67.7092C24.995 67.6342 25.0877 67.5665 25.2106 67.505C25.3325 67.4446 25.4544 67.4133 25.5773 67.4133C25.8325 67.4133 25.9606 67.5363 25.9606 67.78C25.9606 67.9217 25.9169 68.1696 25.8315 68.5217C25.7481 68.8717 25.6398 69.2446 25.5065 69.6383C25.9586 68.9446 26.4377 68.3581 26.944 67.88C27.4523 67.3998 27.9502 67.1592 28.4398 67.1592C28.7867 67.1592 29.0481 67.2842 29.2231 67.5342C29.3981 67.7821 29.4856 68.079 29.4856 68.4258C29.4856 68.6342 29.4586 68.8331 29.4065 69.0217C29.3533 69.2081 29.2752 69.4238 29.1731 69.6675C29.0898 69.8758 29.0242 70.055 28.9773 70.205C28.9294 70.355 28.9065 70.505 28.9065 70.655C28.9065 71.0133 29.0461 71.1925 29.3273 71.1925C29.6492 71.1925 29.9815 70.9821 30.3231 70.5592C30.6669 70.1342 30.994 69.6123 31.3023 68.9925L31.4565 69.1758C30.7815 70.7654 29.969 71.5592 29.019 71.5592Z" fill="#423F3F"/>
<path d="M33.7437 65.1844C33.5739 65.1844 33.4354 65.1458 33.3271 65.0677C33.2187 64.9875 33.1646 64.8708 33.1646 64.7177C33.1646 64.5323 33.2771 64.3635 33.5021 64.2135C33.7271 64.0615 33.9573 63.9844 34.1937 63.9844C34.5042 63.9844 34.6604 64.1302 34.6604 64.4219C34.6604 64.6031 34.5625 64.775 34.3687 64.9385C34.1771 65.1031 33.9687 65.1844 33.7437 65.1844ZM32.0521 71.6427C31.7021 71.6427 31.4323 71.5313 31.2437 71.3094C31.0573 71.0906 30.9646 70.8073 30.9646 70.4594C30.9646 70.0927 31.0698 69.5865 31.2812 68.9385C31.4917 68.2885 31.7542 67.7198 32.0687 67.2302C32.3854 66.7417 32.6937 66.4969 32.9937 66.4969C33.0792 66.4969 33.1531 66.525 33.2146 66.5802C33.275 66.6365 33.3062 66.7115 33.3062 66.8052C33.3062 66.9385 33.1562 67.2542 32.8562 67.751C32.5448 68.2677 32.2979 68.7323 32.1146 69.1427C31.9312 69.551 31.8396 69.9385 31.8396 70.3052C31.8396 70.6333 31.8937 70.8573 32.0021 70.976C32.1104 71.0927 32.2864 71.151 32.5312 71.151C33.2646 71.151 33.9875 70.4323 34.7021 68.9927L34.8271 69.1344C34.5656 69.924 34.1781 70.5385 33.6646 70.9802C33.1531 71.4219 32.6156 71.6427 32.0521 71.6427Z" fill="#423F3F"/>
<path d="M34.2502 75.226C34.0533 75.226 33.8752 75.1343 33.7168 74.951C33.5564 74.7676 33.4752 74.4447 33.4752 73.9843C33.4752 72.9947 33.8272 71.4406 34.5293 69.3218C35.2345 67.2031 36.0595 65.3072 37.0043 63.6343C37.9512 61.9624 38.7856 61.126 39.5085 61.126C39.6887 61.126 39.8137 61.1801 39.8835 61.2885C39.9522 61.3947 39.9877 61.5458 39.9877 61.7426C39.9877 62.2624 39.8043 62.851 39.4377 63.5093C39.071 64.1656 38.596 64.8083 38.0127 65.4385C37.4314 66.0697 36.8356 66.5958 36.2252 67.0176C36.1585 67.1676 36.0679 67.4031 35.9543 67.7218C36.0481 67.7416 36.1262 67.7958 36.1877 67.8843C36.2481 67.9739 36.2887 68.0708 36.3085 68.176C36.3835 68.701 36.4585 69.1093 36.5335 69.401C36.6085 69.6926 36.7231 69.9281 36.8793 70.1051C37.0345 70.2833 37.2522 70.3718 37.5335 70.3718C37.8439 70.3718 38.1095 70.2656 38.3293 70.051C38.5512 69.8343 38.8085 69.4822 39.1002 68.9926L39.3127 69.1343C39.0877 69.6593 38.8002 70.0583 38.4502 70.3301C38.1022 70.6031 37.7752 70.7385 37.4668 70.7385C37.297 70.7385 37.121 70.6968 36.9377 70.6135C36.7543 70.5281 36.5814 70.4156 36.421 70.276C36.421 71.0458 36.3127 71.8145 36.096 72.5843C35.8793 73.3562 35.6043 73.9895 35.271 74.4843C34.9377 74.9781 34.597 75.226 34.2502 75.226ZM36.4502 66.4385C37.022 65.9135 37.5356 65.3656 37.9918 64.7926C38.4502 64.2176 38.8054 63.7031 39.0585 63.2468C39.3106 62.7916 39.4377 62.4656 39.4377 62.2676C39.4377 62.1343 39.372 62.0676 39.2418 62.0676C38.8939 62.0676 38.471 62.4749 37.971 63.2885C37.4731 64.1031 36.9668 65.1531 36.4502 66.4385ZM34.6168 74.5468C34.7856 74.5468 34.9856 74.3062 35.2168 73.826C35.447 73.3479 35.6439 72.7822 35.8085 72.1301C35.972 71.477 36.0543 70.9114 36.0543 70.4301C36.0543 70.1468 36.0179 69.8885 35.946 69.6551C35.8762 69.4197 35.7522 69.1281 35.5752 68.7801C35.2085 69.8614 34.9127 70.8614 34.6877 71.7801C34.4627 72.702 34.3502 73.3989 34.3502 73.8718C34.3502 74.0854 34.3741 74.251 34.421 74.3676C34.4679 74.4864 34.5335 74.5468 34.6168 74.5468Z" fill="#423F3F"/>
<path d="M38.6494 75.226C38.4525 75.226 38.2744 75.1343 38.116 74.951C37.9556 74.7676 37.8744 74.4447 37.8744 73.9843C37.8744 72.9947 38.2264 71.4406 38.9285 69.3218C39.6337 67.2031 40.4587 65.3072 41.4035 63.6343C42.3504 61.9624 43.1848 61.126 43.9077 61.126C44.0879 61.126 44.2129 61.1801 44.2827 61.2885C44.3514 61.3947 44.3869 61.5458 44.3869 61.7426C44.3869 62.2624 44.2035 62.851 43.8369 63.5093C43.4702 64.1656 42.9952 64.8083 42.4119 65.4385C41.8306 66.0697 41.2348 66.5958 40.6244 67.0176C40.5577 67.1676 40.4671 67.4031 40.3535 67.7218C40.4473 67.7416 40.5254 67.7958 40.5869 67.8843C40.6473 67.9739 40.6879 68.0708 40.7077 68.176C40.7827 68.701 40.8577 69.1093 40.9327 69.401C41.0077 69.6926 41.1223 69.9281 41.2785 70.1051C41.4337 70.2833 41.6514 70.3718 41.9327 70.3718C42.2431 70.3718 42.5087 70.2656 42.7285 70.051C42.9504 69.8343 43.2077 69.4822 43.4994 68.9926L43.7119 69.1343C43.4869 69.6593 43.1994 70.0583 42.8494 70.3301C42.5014 70.6031 42.1744 70.7385 41.866 70.7385C41.6962 70.7385 41.5202 70.6968 41.3369 70.6135C41.1535 70.5281 40.9806 70.4156 40.8202 70.276C40.8202 71.0458 40.7119 71.8145 40.4952 72.5843C40.2785 73.3562 40.0035 73.9895 39.6702 74.4843C39.3369 74.9781 38.9962 75.226 38.6494 75.226ZM40.8494 66.4385C41.4212 65.9135 41.9348 65.3656 42.391 64.7926C42.8494 64.2176 43.2046 63.7031 43.4577 63.2468C43.7098 62.7916 43.8369 62.4656 43.8369 62.2676C43.8369 62.1343 43.7712 62.0676 43.641 62.0676C43.2931 62.0676 42.8702 62.4749 42.3702 63.2885C41.8723 64.1031 41.366 65.1531 40.8494 66.4385ZM39.016 74.5468C39.1848 74.5468 39.3848 74.3062 39.616 73.826C39.8462 73.3479 40.0431 72.7822 40.2077 72.1301C40.3712 71.477 40.4535 70.9114 40.4535 70.4301C40.4535 70.1468 40.4171 69.8885 40.3452 69.6551C40.2754 69.4197 40.1514 69.1281 39.9744 68.7801C39.6077 69.8614 39.3119 70.8614 39.0869 71.7801C38.8619 72.702 38.7494 73.3989 38.7494 73.8718C38.7494 74.0854 38.7733 74.251 38.8202 74.3676C38.8671 74.4864 38.9327 74.5468 39.016 74.5468Z" fill="#423F3F"/>
<path d="M44.7527 71.8965C44.1996 71.8965 43.7746 71.7434 43.4777 71.4382C43.184 71.133 43.0361 70.7403 43.0361 70.259C43.0361 69.7069 43.2194 69.1111 43.5861 68.4715C43.9527 67.8299 44.4152 67.2913 44.9736 66.8549C45.5319 66.4194 46.0788 66.2007 46.6152 66.2007C47.1986 66.2007 47.4902 66.4871 47.4902 67.059C47.4902 67.5205 47.3163 67.9507 46.9694 68.3507C46.6215 68.7507 46.1746 69.0778 45.6277 69.3299C45.0829 69.583 44.5382 69.7382 43.9944 69.7965C43.9548 69.9549 43.9361 70.1246 43.9361 70.3049C43.9361 70.6413 44.0204 70.9236 44.1902 71.1507C44.359 71.3757 44.6465 71.4882 45.0527 71.4882C45.6246 71.4882 46.2027 71.2496 46.7861 70.7715C47.3694 70.2913 47.8444 69.6986 48.2111 68.9924L48.3777 69.1174C48.0027 69.9538 47.4798 70.6257 46.8111 71.134C46.1444 71.6424 45.4579 71.8965 44.7527 71.8965ZM44.0652 69.5257C44.459 69.3871 44.8715 69.1913 45.3027 68.9382C45.7361 68.683 46.1048 68.384 46.4111 68.0424C46.7163 67.6986 46.8694 67.3371 46.8694 66.959C46.8694 66.8486 46.8486 66.7674 46.8069 66.7174C46.7652 66.6653 46.6871 66.6382 46.5736 66.6382C46.2819 66.6382 45.9632 66.784 45.6194 67.0757C45.2777 67.3653 44.9632 67.7361 44.6777 68.1882C44.3913 68.6382 44.1871 69.084 44.0652 69.5257Z" fill="#423F3F"/>
<path d="M50.3647 71.6426C50.0449 71.6426 49.7939 71.5572 49.6105 71.3884C49.4272 71.2197 49.3355 70.9989 49.3355 70.7259C49.3355 70.4072 49.473 69.9457 49.748 69.3426C49.8699 69.0343 49.9616 68.7884 50.023 68.6051C50.0834 68.4218 50.1147 68.2499 50.1147 68.0884C50.1147 67.8551 50.0605 67.6707 49.9522 67.5343C49.8439 67.3957 49.723 67.2822 49.5897 67.1926C49.4584 67.1041 49.3699 67.0457 49.323 67.0176C49.1168 67.5457 48.8959 68.0614 48.6605 68.5634C48.4241 69.0666 48.2272 69.4541 48.0689 69.7259L47.9397 69.4843C48.3918 68.6124 48.773 67.7197 49.0814 66.8051C48.9897 66.7114 48.9439 66.5989 48.9439 66.4676C48.9439 66.2989 48.9782 66.1384 49.048 65.9884C49.1168 65.8384 49.2001 65.7218 49.298 65.6384C49.398 65.553 49.4772 65.5093 49.5355 65.5093C49.6657 65.5093 49.7314 65.6218 49.7314 65.8468C49.7314 65.8864 49.7074 65.9707 49.6605 66.1009C49.6126 66.2322 49.5855 66.3207 49.5772 66.3676C49.5772 66.4624 49.6157 66.5499 49.6939 66.6301C49.7741 66.7114 49.9043 66.8124 50.0855 66.9343C50.3772 67.1405 50.6043 67.3447 50.7689 67.5468C50.9324 67.7499 51.0147 68.0114 51.0147 68.3301C51.0147 68.5364 50.9814 68.7405 50.9147 68.9426C50.8501 69.1457 50.7522 69.4114 50.6189 69.7384C50.4126 70.1916 50.3105 70.5166 50.3105 70.7134C50.3105 70.9947 50.4501 71.1343 50.7314 71.1343C51.0147 71.1343 51.3168 71.0218 51.6397 70.7968C51.9647 70.5718 52.2626 70.2926 52.5355 69.9593C52.8105 69.6239 53.0084 69.3155 53.1314 69.0343L53.3147 69.1759C53.023 69.8239 52.5991 70.3968 52.0439 70.8968C51.4876 71.3937 50.9282 71.6426 50.3647 71.6426Z" fill="#423F3F"/>
<path d="M59.5875 72.5007C58.9562 72.5007 58.4312 72.3403 58.0125 72.0215C57.5958 71.7017 57.2896 71.2819 57.0958 70.7632C56.9042 70.2413 56.8083 69.6746 56.8083 69.0632C56.8083 67.8611 57.1042 66.6413 57.6958 65.4049C58.2896 64.1694 59.0385 63.1496 59.9417 62.3465C60.8437 61.5413 61.7312 61.1382 62.6042 61.1382C63.0094 61.1382 63.3271 61.2371 63.5583 61.434C63.7885 61.6319 63.9042 61.9371 63.9042 62.3507C63.9042 62.7174 63.8187 63.1413 63.65 63.6215C63.4802 64.0996 63.2677 64.508 63.0125 64.8465C62.7594 65.1861 62.5104 65.3549 62.2667 65.3549C62.0771 65.3549 61.9312 65.2465 61.8292 65.0299C62.176 64.6361 62.5135 64.1569 62.8417 63.5924C63.1719 63.0288 63.3375 62.5632 63.3375 62.1965C63.3375 61.9996 63.2802 61.8444 63.1667 61.7299C63.0552 61.6163 62.8812 61.559 62.6458 61.559C61.9979 61.559 61.3021 61.9799 60.5583 62.8215C59.8167 63.6632 59.1937 64.6955 58.6917 65.9174C58.1885 67.1403 57.9375 68.2674 57.9375 69.3007C57.9375 70.0736 58.101 70.7205 58.4292 71.2424C58.7594 71.7611 59.2583 72.0215 59.925 72.0215C60.4052 72.0215 60.8937 71.8819 61.3917 71.6049C61.8917 71.3299 62.3469 70.9621 62.7583 70.5007C63.1719 70.0403 63.5062 69.5371 63.7625 68.9924L63.9583 69.134C63.45 70.1288 62.8177 70.9382 62.0625 71.5632C61.3062 72.1882 60.4812 72.5007 59.5875 72.5007Z" fill="#423F3F"/>
<path d="M64.7044 71.9385C64.396 71.9385 64.146 71.8364 63.9544 71.6343C63.7606 71.4343 63.6627 71.1458 63.6627 70.7676C63.6627 70.2156 63.8627 69.5958 64.2627 68.9093C64.6627 68.2208 65.1679 67.6374 65.7794 67.1593C66.3898 66.6791 66.9856 66.4385 67.5669 66.4385C67.9335 66.4385 68.2387 66.5374 68.4835 66.7343C68.7273 66.9322 68.8502 67.1864 68.8502 67.4968C68.8502 67.7135 68.7887 67.8697 68.6669 67.9635C68.5439 68.0583 68.3762 68.1051 68.1627 68.1051C68.2064 67.9364 68.2294 67.7708 68.2294 67.6093C68.2294 67.376 68.1721 67.1874 68.0585 67.0426C67.9471 66.8958 67.7752 66.8218 67.5419 66.8218C67.1273 66.8218 66.6919 67.0531 66.2335 67.5135C65.7773 67.9718 65.3971 68.5218 65.0919 69.1635C64.7887 69.8031 64.6377 70.351 64.6377 70.8093C64.6377 71.176 64.7637 71.3593 65.0169 71.3593C65.3919 71.3593 65.8335 71.0624 66.3419 70.4676C66.8502 69.8708 67.396 69.1447 67.9794 68.2885C68.1012 68.3051 68.2252 68.3447 68.3502 68.4051C68.4773 68.4666 68.5419 68.5447 68.5419 68.6385C68.5419 68.7135 68.4971 68.8343 68.4085 69.001C68.3189 69.1656 68.2648 69.2614 68.246 69.2885C68.0846 69.5614 67.9564 69.8031 67.8627 70.0135C67.771 70.2249 67.7252 70.4208 67.7252 70.601C67.7252 70.7593 67.7637 70.9031 67.8419 71.0301C67.9221 71.1551 68.0429 71.2176 68.2044 71.2176C68.4762 71.2176 68.8189 71.0239 69.2335 70.6343C69.6471 70.2458 70.0554 69.6989 70.4585 68.9926L70.6002 69.1343C70.4023 69.6322 70.1481 70.076 69.8377 70.4676C69.5294 70.8572 69.196 71.1593 68.8377 71.376C68.4794 71.5926 68.1356 71.701 67.8085 71.701C67.4773 71.701 67.2252 71.6031 67.0502 71.4093C66.8773 71.2176 66.7919 70.9864 66.7919 70.7135C66.7919 70.5916 66.8054 70.4551 66.8335 70.3051C66.4106 70.8697 66.0335 71.2812 65.7002 71.5426C65.3669 71.8062 65.0346 71.9385 64.7044 71.9385Z" fill="#423F3F"/>
<path d="M74.3645 71.8132C74.0363 71.8132 73.7645 71.6715 73.5478 71.3882C73.3311 71.1079 73.1728 70.7704 73.0728 70.3757C72.9749 69.9788 72.927 69.6111 72.927 69.2715C73.104 69.2715 73.3363 69.2204 73.6228 69.1173C73.9113 69.0152 74.1686 68.8632 74.3936 68.6632C74.6186 68.4611 74.7311 68.2132 74.7311 67.9215C74.7311 67.7329 74.6603 67.5798 74.5186 67.4632C74.379 67.3444 74.2155 67.284 74.027 67.284C73.4238 67.284 72.9082 67.6704 72.4811 68.4423C72.053 69.2121 71.679 70.0819 71.3603 71.0507L71.2061 71.459C71.1582 71.5423 71.0905 71.6048 71.002 71.6465C70.9124 71.6902 70.8207 71.7132 70.727 71.7132C70.5103 71.7132 70.3738 71.5986 70.3186 71.3715C70.2624 71.1465 70.2353 70.8194 70.2353 70.3882C70.2353 69.4663 70.5145 68.2777 71.0728 66.8215C71.6311 65.3632 72.2603 64.0632 72.9603 62.9215C73.6603 61.7798 74.1749 61.209 74.5061 61.209C74.628 61.209 74.7311 61.2986 74.8145 61.4757C74.8999 61.6538 74.9436 61.8704 74.9436 62.1257C74.9436 62.5569 74.8186 63.0496 74.5686 63.6048C74.3186 64.1611 73.9728 64.6965 73.5311 65.2132C73.0895 65.7298 72.5999 66.1486 72.0645 66.4673C71.7645 67.2007 71.5332 67.9298 71.3728 68.6548C71.2145 69.3777 71.1353 69.9923 71.1353 70.5007C71.5488 69.4569 72.0238 68.5371 72.5603 67.7423C73.0957 66.9486 73.6738 66.5507 74.2936 66.5507C74.6405 66.5507 74.9363 66.6736 75.1811 66.9173C75.4249 67.1621 75.5478 67.459 75.5478 67.809C75.5478 68.1757 75.428 68.484 75.1895 68.734C74.9499 68.9819 74.6728 69.1632 74.3561 69.2798C74.0415 69.3965 73.7728 69.4548 73.5478 69.4548C73.5947 69.8048 73.7103 70.1965 73.8936 70.6298C74.077 71.0611 74.328 71.2757 74.6478 71.2757C75.353 71.2757 76.0488 70.509 76.7353 68.9757L76.8728 69.1173C76.7415 69.5788 76.5405 70.0163 76.2686 70.4298C75.9957 70.8444 75.6905 71.1777 75.352 71.4298C75.0124 71.685 74.6832 71.8132 74.3645 71.8132ZM72.3061 65.9048C72.7197 65.5746 73.0905 65.1882 73.4186 64.7465C73.7488 64.3048 74.0061 63.8777 74.1895 63.4632C74.3728 63.0496 74.4645 62.7204 74.4645 62.4757C74.4645 62.3923 74.4499 62.3507 74.4228 62.3507C74.2811 62.3507 73.9936 62.7111 73.5603 63.4298C73.127 64.1496 72.7082 64.9746 72.3061 65.9048Z" fill="#423F3F"/>
<path d="M77.9864 71.8965C77.4333 71.8965 77.0083 71.7434 76.7114 71.4382C76.4176 71.133 76.2697 70.7403 76.2697 70.259C76.2697 69.7069 76.453 69.1111 76.8197 68.4715C77.1864 67.8299 77.6489 67.2913 78.2072 66.8549C78.7655 66.4194 79.3124 66.2007 79.8489 66.2007C80.4322 66.2007 80.7239 66.4871 80.7239 67.059C80.7239 67.5205 80.5499 67.9507 80.203 68.3507C79.8551 68.7507 79.4083 69.0778 78.8614 69.3299C78.3166 69.583 77.7718 69.7382 77.228 69.7965C77.1885 69.9549 77.1697 70.1246 77.1697 70.3049C77.1697 70.6413 77.2541 70.9236 77.4239 71.1507C77.5926 71.3757 77.8801 71.4882 78.2864 71.4882C78.8583 71.4882 79.4364 71.2496 80.0197 70.7715C80.603 70.2913 81.078 69.6986 81.4447 68.9924L81.6114 69.1174C81.2364 69.9538 80.7135 70.6257 80.0447 71.134C79.378 71.6424 78.6916 71.8965 77.9864 71.8965ZM77.2989 69.5257C77.6926 69.3871 78.1051 69.1913 78.5364 68.9382C78.9697 68.683 79.3385 68.384 79.6447 68.0424C79.9499 67.6986 80.103 67.3371 80.103 66.959C80.103 66.8486 80.0822 66.7674 80.0405 66.7174C79.9989 66.6653 79.9208 66.6382 79.8072 66.6382C79.5155 66.6382 79.1968 66.784 78.853 67.0757C78.5114 67.3653 78.1968 67.7361 77.9114 68.1882C77.6249 68.6382 77.4208 69.084 77.2989 69.5257Z" fill="#423F3F"/>
<path d="M82.64 71.9967C82.0285 71.9967 81.5817 71.8134 81.2983 71.4467C81.0181 71.0801 80.8775 70.6467 80.8775 70.1467C80.8775 69.7717 80.9442 69.5072 81.0775 69.3509C81.2077 69.1957 81.3504 69.0863 81.5067 69.0217C81.6619 68.9551 81.7535 68.9082 81.7817 68.8801C82.3817 68.2217 82.8463 67.5405 83.1775 66.8342V66.6634C83.1775 66.3447 83.2317 66.1051 83.34 65.9467C83.4483 65.7863 83.5775 65.7051 83.7275 65.7051C83.8025 65.7051 83.8577 65.7217 83.8942 65.7551C83.9327 65.7884 83.9525 65.8332 83.9525 65.8884C83.9525 65.928 83.9379 66.0051 83.9108 66.1217C83.8827 66.2384 83.8692 66.3676 83.8692 66.5092C83.8692 66.6988 83.8942 66.8988 83.9442 67.1092C83.9963 67.3207 84.0796 67.5957 84.1942 67.9342C84.3244 68.3405 84.4244 68.6926 84.4942 68.9926C84.566 69.2926 84.6025 69.5988 84.6025 69.9092C84.6025 70.154 84.5733 70.3842 84.515 70.6009C84.8535 70.5426 85.1692 70.3905 85.4608 70.1426C85.7525 69.8926 86.0296 69.5134 86.2942 69.0051L86.4192 69.1467C86.2494 69.6363 85.991 70.0217 85.6442 70.3051C85.2963 70.5863 84.8963 70.7592 84.4442 70.8259C84.3046 71.2092 84.0754 71.4988 83.7567 71.6967C83.4369 71.8967 83.065 71.9967 82.64 71.9967ZM83.6275 70.5842C83.666 70.3405 83.6858 70.1197 83.6858 69.9217C83.6858 69.6415 83.6619 69.3613 83.615 69.0801C83.5671 68.7967 83.4963 68.4717 83.4025 68.1051C83.3192 67.728 83.2671 67.4832 83.2483 67.3717C82.7671 68.1613 82.3119 68.7717 81.8817 69.2051C82.0317 69.5332 82.2588 69.8249 82.565 70.0801C82.8702 70.3332 83.2244 70.5009 83.6275 70.5842ZM82.6692 71.5009C83.1025 71.5009 83.3983 71.2707 83.5567 70.8092C83.1817 70.7342 82.8379 70.5874 82.5275 70.3676C82.2192 70.1457 81.9838 69.903 81.8233 69.6384C81.6171 69.6499 81.515 69.8155 81.515 70.1342C81.515 70.4905 81.6202 70.8072 81.8317 71.0842C82.0421 71.3613 82.3213 71.5009 82.6692 71.5009Z" fill="#423F3F"/>
<mask id="mask0_373_36640" style="mask-type:luminance" maskUnits="userSpaceOnUse" x="38" y="15" width="27" height="26">
<path d="M38.4 15.2002H64.8V40.2669H38.4V15.2002Z" fill="white"/>
</mask>
<g mask="url(#mask0_373_36640)">
<mask id="mask1_373_36640" style="mask-type:luminance" maskUnits="userSpaceOnUse" x="33" y="11" width="36" height="34">
<path d="M40.5271 44.593L33.75 19.492L61.7469 11.9326L68.524 37.0337L40.5271 44.593Z" fill="white"/>
</mask>
<g mask="url(#mask1_373_36640)">
<mask id="mask2_373_36640" style="mask-type:luminance" maskUnits="userSpaceOnUse" x="33" y="11" width="36" height="34">
<path d="M40.5271 44.593L33.75 19.492L61.7469 11.9326L68.524 37.0337L40.5271 44.593Z" fill="white"/>
</mask>
<g mask="url(#mask2_373_36640)">
<mask id="mask3_373_36640" style="mask-type:luminance" maskUnits="userSpaceOnUse" x="33" y="11" width="36" height="34">
<path d="M40.5271 44.593L33.75 19.492L61.7469 11.9326L68.524 37.0337L40.5271 44.593Z" fill="white"/>
</mask>
<g mask="url(#mask3_373_36640)">
<path d="M47.2594 40.014C46.5854 39.8858 45.9062 39.6233 45.225 39.1952C40.8312 36.4379 36.2823 28.8598 39.874 23.9494C41.4 21.8619 43.6698 20.0213 45.6115 18.3285C48.5219 15.791 51.4979 14.6983 55.3354 15.8952C58.3792 16.8442 61.8854 18.4317 63.6802 21.2077C64.6552 22.715 65.0385 24.6848 64.3427 26.3379C63.7687 27.6994 62.5708 28.6754 61.4958 29.6879C57.825 33.1442 53.2698 41.1515 47.2594 40.014Z" fill="white"/>
</g>
</g>
</g>
</g>
<mask id="mask4_373_36640" style="mask-type:luminance" maskUnits="userSpaceOnUse" x="43" y="15" width="15" height="14">
<path d="M43.2 15.7334H57.0667V28.2667H43.2V15.7334Z" fill="white"/>
</mask>
<g mask="url(#mask4_373_36640)">
<mask id="mask5_373_36640" style="mask-type:luminance" maskUnits="userSpaceOnUse" x="39" y="12" width="22" height="21">
<path d="M39.649 21.4033L49.7615 12.0137L60.2406 23.298L50.1281 32.6887L39.649 21.4033Z" fill="white"/>
</mask>
<g mask="url(#mask5_373_36640)">
<mask id="mask6_373_36640" style="mask-type:luminance" maskUnits="userSpaceOnUse" x="39" y="12" width="22" height="21">
<path d="M39.649 21.4033L49.7615 12.0137L60.2406 23.298L50.1281 32.6887L39.649 21.4033Z" fill="white"/>
</mask>
<g mask="url(#mask6_373_36640)">
<mask id="mask7_373_36640" style="mask-type:luminance" maskUnits="userSpaceOnUse" x="39" y="12" width="22" height="21">
<path d="M39.649 21.4033L49.7615 12.0137L60.2406 23.298L50.1281 32.6887L39.649 21.4033Z" fill="white"/>
</mask>
<g mask="url(#mask7_373_36640)">
<path d="M43.4656 23.4336C43.3594 23.0867 43.3146 22.7023 43.3469 22.2763C43.5542 19.5294 45.9875 15.519 49.1833 15.9919C50.5406 16.193 51.9677 16.8044 53.2437 17.2982C55.1552 18.0388 56.4052 19.1669 56.7927 21.2659C57.101 22.9305 57.2229 24.9711 56.3635 26.5013C55.8969 27.3315 55.0667 27.9982 54.1177 28.0794C53.3365 28.1471 52.5812 27.8252 51.8396 27.5711C49.3073 26.7002 44.4187 26.5398 43.4656 23.4336Z" fill="#FFAAA5"/>
</g>
</g>
</g>
</g>
<mask id="mask8_373_36640" style="mask-type:luminance" maskUnits="userSpaceOnUse" x="50" y="10" width="12" height="10">
<path d="M50 10H61.8V19.7333H50V10Z" fill="white"/>
</mask>
<g mask="url(#mask8_373_36640)">
<path d="M55.7958 11.1602C54.9885 11.5279 54.0406 11.3841 53.174 11.3643C52.3063 11.3445 51.0771 11.4133 50.8323 12.4748C50.7375 12.881 50.8458 13.3362 51.1125 13.6591C51.3927 13.9998 51.8458 14.2195 51.9625 14.6477C52.0542 14.9873 51.8938 15.3393 51.6885 15.6112C51.3594 16.0487 50.9115 16.3758 50.5708 16.8018C50.2292 17.2289 49.999 17.8279 50.2083 18.3508C50.4198 18.8779 50.9875 19.1393 51.5125 19.305C52.6219 19.655 53.8729 19.7987 54.875 19.2352C55.4688 18.9008 55.9385 18.3373 56.5844 18.1268C57.4198 17.8539 58.3375 18.2331 59.2146 18.1633C60.2604 18.0789 61.2042 17.2904 61.5021 16.2518C61.8 15.2143 61.4344 13.9893 60.6146 13.2852C60.2313 12.955 59.7677 12.7373 59.3969 12.3914C59.1052 12.1206 58.8792 11.7748 58.7438 11.3956C58.601 10.9945 58.5354 10.5206 58.2031 10.2633C57.8635 10.0008 57.3781 10.0883 57.0188 10.3029C56.6594 10.5164 56.3688 10.8362 56.0083 11.0498C55.9385 11.0914 55.8688 11.1279 55.7958 11.1602Z" fill="#A8E6CF"/>
</g>
<mask id="mask9_373_36640" style="mask-type:luminance" maskUnits="userSpaceOnUse" x="35" y="32" width="32" height="21">
<path d="M35.4875 32.2666H66.6875V52.5093H35.4875V32.2666Z" fill="white"/>
</mask>
<g mask="url(#mask9_373_36640)">
<path d="M39.3604 37.4426C38.9885 37.4863 38.6156 37.5301 37.9896 37.679C37.3646 37.827 36.4865 38.0801 36.0031 38.4592C35.5208 38.8374 35.4333 39.3436 35.7562 39.7447C36.0802 40.1467 36.8156 40.4426 38.0719 40.7395C39.3281 41.0353 41.1052 41.3332 42.8719 41.5311C44.6375 41.729 46.3937 41.827 47.3364 41.8603C48.2802 41.8936 48.4114 41.8603 48.6917 42.1853C48.9719 42.5092 49.4 43.1905 49.6187 44.0478C49.8385 44.9051 49.8489 45.9384 49.7229 46.828C49.5969 47.7176 49.3333 48.4655 48.8229 49.0915C48.3125 49.7186 47.5552 50.2238 46.975 50.6082C46.3937 50.9936 45.9875 51.2572 46.0364 51.5093C46.0854 51.7624 46.5906 52.004 47.6042 52.152C48.6187 52.3009 50.1448 52.3561 51.4437 52.3665C52.7437 52.378 53.8198 52.3447 54.5219 52.1686C55.2239 51.9915 55.5521 51.6738 55.5458 51.4374C55.5385 51.1999 55.1958 51.0457 54.7021 50.7874C54.2083 50.529 53.5635 50.1676 53.0281 49.5853C52.4927 49.003 52.0646 48.2009 51.85 47.4103C51.6364 46.6186 51.6364 45.8384 51.7239 45.1634C51.8114 44.4874 51.9875 43.9155 52.251 43.3988C52.5146 42.8832 52.8656 42.4207 53.2 42.1467C53.5344 41.8717 53.8531 41.7832 54.8073 41.7342C55.7614 41.6853 57.3521 41.6738 58.8719 41.5863C60.3906 41.4988 61.8396 41.3332 63.0677 41.0863C64.2969 40.8395 65.3062 40.5092 65.9323 40.1686C66.5573 39.827 66.7979 39.4759 66.4469 39.0853C66.0969 38.6957 65.1531 38.2665 64.2969 37.9759C63.4406 37.6842 62.6729 37.5301 61.9052 37.377" stroke="black" stroke-width="0.779615" stroke-miterlimit="22.926"/>
</g>
<path d="M47.8833 41.879C48.7833 41.8946 49.6833 41.9103 50.7708 41.8915C51.8583 41.8717 53.1333 41.8155 54.4073 41.7603" stroke="black" stroke-width="0.779615" stroke-miterlimit="22.926"/>
<mask id="mask10_373_36640" style="mask-type:luminance" maskUnits="userSpaceOnUse" x="35" y="22" width="32" height="24">
<path d="M35.4875 22.9331H66.6875V45.5998H35.4875V22.9331Z" fill="white"/>
</mask>
<g mask="url(#mask10_373_36640)">
<path d="M57.476 28.0986C58.6448 28.1122 59.8135 28.1257 60.5729 28.233C61.3333 28.3393 61.6854 28.5382 61.8396 30.0778C61.9937 31.6174 61.95 34.4966 61.901 36.2663C61.851 38.0351 61.7969 38.6945 61.2646 39.1455C60.7323 39.5955 59.7229 39.8382 57.875 40.0247C56.026 40.2111 53.3385 40.3434 50.9021 40.3705C48.4667 40.3976 46.2844 40.3216 44.4406 40.157C42.5979 39.9924 41.0948 39.7393 40.3042 39.2726C39.5146 38.8049 39.4375 38.1236 39.399 36.8434C39.3604 35.5643 39.3604 33.6841 39.3604 32.2778C39.3604 30.8716 39.3604 29.9372 39.426 29.3653C39.4927 28.7934 39.624 28.5851 39.8271 28.4424C40.0302 28.2997 40.3042 28.2226 41.2281 28.1809C42.151 28.1393 43.7219 28.133 45.2937 28.1257" stroke="black" stroke-width="0.779615" stroke-miterlimit="22.926"/>
</g>
<path d="M48.8885 24.1572C48.3396 23.5749 47.7917 22.9916 47.3583 22.3541C46.925 21.7166 46.6063 21.0249 46.3761 20.2447C46.1458 19.4634 46.0031 18.5957 45.9208 18.0134C45.8385 17.4312 45.8167 17.1332 45.7948 16.8374" stroke="black" stroke-width="0.779615" stroke-miterlimit="22.926"/>
<path d="M48.6729 22.3646C48.4885 22.3042 48.351 22.0188 48.3292 21.725C48.3073 21.4313 48.4 21.1292 48.6729 20.8323C48.9437 20.5365 49.3937 20.2448 49.7969 20.0115C50.201 19.7781 50.5573 19.6021 50.6281 19.674C50.6989 19.7448 50.4854 20.0636 50.3239 20.3167C50.1625 20.5688 50.0531 20.7552 49.8937 21.0417C49.7344 21.3271 49.526 21.7115 49.3062 21.9865C49.0865 22.2604 48.8562 22.4261 48.6729 22.3646Z" stroke="black" stroke-width="0.779615" stroke-miterlimit="22.926"/>
<path d="M46.3615 19.9857C46.5177 19.7961 46.6583 19.3482 46.6573 18.8596C46.6563 18.3711 46.5136 17.844 46.2552 17.4232C45.9969 17.0034 45.624 16.6898 45.4375 16.6627C45.2511 16.6346 45.2511 16.8929 45.224 17.2857C45.1969 17.6784 45.1417 18.2065 45.2438 18.6867C45.3448 19.1669 45.6031 19.6023 45.8177 19.8534C46.0323 20.1054 46.2042 20.1752 46.3604 19.9846L46.3615 19.9857Z" stroke="black" stroke-width="0.779615" stroke-miterlimit="22.926"/>
<path d="M42.5562 22.0552C42.7187 22.0354 42.9812 21.7614 43.1594 21.4666C43.3375 21.1729 43.4302 20.8593 43.4083 20.5625C43.3865 20.2666 43.25 19.9854 43.151 19.6343C43.0521 19.2823 42.9917 18.8593 42.8625 18.8052C42.7344 18.75 42.5364 19.0635 42.3719 19.4229C42.2073 19.7833 42.076 20.1885 42.0646 20.5604C42.0531 20.9312 42.1635 21.2656 42.2479 21.551C42.3333 21.8375 42.3937 22.0729 42.5552 22.0541L42.5562 22.0552Z" stroke="black" stroke-width="0.779615" stroke-miterlimit="22.926"/>
<path d="M48.2937 24.0029C48.0927 23.7654 47.8406 23.4592 47.4677 23.2613C47.0948 23.0623 46.6021 22.9748 46.149 22.8821C45.6969 22.7884 45.2854 22.6904 45.2031 22.7852C45.1208 22.8821 45.3677 23.1727 45.7083 23.4977C46.049 23.8217 46.4812 24.179 46.9031 24.3467C47.326 24.5134 47.7375 24.4915 48.05 24.4967C48.3625 24.5019 48.5771 24.5352 48.6094 24.4696C48.6427 24.404 48.4937 24.2394 48.2948 24.0029H48.2937Z" stroke="black" stroke-width="0.779615" stroke-miterlimit="22.926"/>
<path d="M46.651 22.2606C46.6239 22.0356 46.3489 21.6283 46.0167 21.3793C45.6854 21.1293 45.2958 21.0356 44.8677 21.0189C44.4396 21.0022 43.9729 21.0627 43.85 21.1304C43.726 21.1991 43.9458 21.2762 44.1739 21.4387C44.401 21.6012 44.6375 21.8481 44.9823 22.0512C45.3281 22.2543 45.7833 22.4147 46.1208 22.472C46.4583 22.5304 46.6781 22.4866 46.651 22.2606Z" stroke="black" stroke-width="0.779615" stroke-miterlimit="22.926"/>
<mask id="mask11_373_36640" style="mask-type:luminance" maskUnits="userSpaceOnUse" x="35" y="14" width="12" height="13">
<path d="M35.4875 14.6665H46.1333V26.6665H35.4875V14.6665Z" fill="white"/>
</mask>
<g mask="url(#mask11_373_36640)">
<path d="M41.0479 21.3625C41.0667 21.1792 40.8146 20.8375 40.6 20.5438C40.3865 20.25 40.2104 20.0031 39.8646 19.8844C39.5198 19.7667 39.0042 19.7781 38.6313 19.775C38.2583 19.7729 38.0281 19.7563 38.0792 19.7865C38.1323 19.8177 38.4667 19.8938 38.7354 20.1354C39.0042 20.3771 39.2073 20.7844 39.4813 21.0563C39.7552 21.3281 40.1 21.4656 40.4188 21.5208C40.7375 21.5761 41.0281 21.5479 41.0479 21.3636V21.3625Z" stroke="black" stroke-width="0.779615" stroke-miterlimit="22.926"/>
</g>
<mask id="mask12_373_36640" style="mask-type:luminance" maskUnits="userSpaceOnUse" x="35" y="18" width="14" height="14">
<path d="M35.4875 18.6665H48.2667V31.1998H35.4875V18.6665Z" fill="white"/>
</mask>
<g mask="url(#mask12_373_36640)">
<path d="M40.7156 23.9947C40.7812 24.1072 41.0667 24.4207 41.3031 24.6655C41.5396 24.9103 41.726 25.0853 41.9469 25.2645C42.1698 25.4436 42.4271 25.6249 42.6219 25.7895C42.8167 25.954 42.9489 26.102 42.9708 26.0613C42.9927 26.0197 42.9052 25.7895 42.825 25.4926C42.7458 25.1957 42.675 24.8332 42.4906 24.5884C42.3073 24.3436 42.0114 24.2176 41.7364 24.1488C41.4625 24.0811 41.2094 24.0697 41.0062 24.0207C40.8031 23.9707 40.65 23.8822 40.7156 23.9957V23.9947Z" stroke="black" stroke-width="0.779615" stroke-miterlimit="22.926"/>
</g>
<mask id="mask13_373_36640" style="mask-type:luminance" maskUnits="userSpaceOnUse" x="35" y="19" width="12" height="12">
<path d="M35.4875 19.4668H46.1333V30.9335H35.4875V19.4668Z" fill="white"/>
</mask>
<g mask="url(#mask13_373_36640)">
<path d="M40.875 24.926C40.699 24.7666 40.2937 24.6521 39.9615 24.676C39.6292 24.701 39.3719 24.8656 39.0865 25.0906C38.801 25.3156 38.4885 25.6021 38.4687 25.7031C38.45 25.8052 38.724 25.7229 39.0594 25.7062C39.3937 25.6896 39.7885 25.7396 40.1115 25.7146C40.4354 25.6896 40.6875 25.5906 40.8417 25.4396C40.9948 25.2885 41.05 25.0854 40.875 24.926Z" stroke="black" stroke-width="0.779615" stroke-miterlimit="22.926"/>
</g>
<path d="M42.3531 27.5717C42.324 27.4696 42.5542 27.2717 42.8031 27.1373C43.0531 27.003 43.3208 26.9321 43.6531 26.9676C43.9844 27.004 44.3792 27.1467 44.6187 27.2873C44.8573 27.4269 44.9396 27.5634 44.824 27.6217C44.7083 27.6801 44.3958 27.6582 44.0531 27.6551C43.7104 27.6519 43.3375 27.6686 43.0052 27.6749C42.674 27.6801 42.3833 27.6749 42.3521 27.5728L42.3531 27.5717Z" stroke="black" stroke-width="0.779615" stroke-miterlimit="22.926"/>
<mask id="mask14_373_36640" style="mask-type:luminance" maskUnits="userSpaceOnUse" x="50" y="7" width="14" height="10">
<path d="M50.6667 7.50928H64V16.7999H50.6667V7.50928Z" fill="white"/>
</mask>
<g mask="url(#mask14_373_36640)">
<path d="M55.9708 11.3344C55.9875 11.1584 55.9927 10.8782 56.1625 10.6386C56.3323 10.4 56.6677 10.2021 57.0073 10.0511C57.3479 9.90003 57.6927 9.79587 58.0448 9.72087C58.3948 9.64691 58.7521 9.60316 58.6854 9.7042C58.6198 9.80628 58.1323 10.0532 57.6792 10.3063C57.2271 10.5584 56.8104 10.8167 56.5188 11.0427C56.2281 11.2677 56.0635 11.4594 55.9948 11.5198C55.926 11.5802 55.9531 11.5084 55.9698 11.3334L55.9708 11.3344Z" stroke="black" stroke-width="0.779615" stroke-miterlimit="22.926"/>
</g>
<mask id="mask15_373_36640" style="mask-type:luminance" maskUnits="userSpaceOnUse" x="48" y="7" width="13" height="11">
<path d="M48.5333 7.50928H60.8V17.5999H48.5333V7.50928Z" fill="white"/>
</mask>
<g mask="url(#mask15_373_36640)">
<path d="M55.6687 12.2956C55.5427 11.906 55.4167 11.5154 55.2083 11.2102C55 10.905 54.7094 10.6852 54.4104 10.4904C54.1114 10.2945 53.8042 10.1247 53.725 10.2102C53.6458 10.2945 53.7937 10.6362 53.9531 10.9414C54.1114 11.2466 54.2812 11.5154 54.5229 11.7185C54.7646 11.9227 55.0771 12.0602 55.2802 12.1445C55.4833 12.23 55.576 12.2633 55.6698 12.2956H55.6687Z" stroke="black" stroke-width="0.779615" stroke-miterlimit="22.926"/>
</g>
<mask id="mask16_373_36640" style="mask-type:luminance" maskUnits="userSpaceOnUse" x="49" y="7" width="13" height="9">
<path d="M49.8667 7.50928H61.3333V15.4666H49.8667V7.50928Z" fill="white"/>
</mask>
<g mask="url(#mask16_373_36640)">
<path d="M55.7781 10.1782C55.6083 10.148 55.4 9.79588 55.2823 9.41463C55.1635 9.03234 55.1365 8.61984 55.1198 8.28025C55.1031 7.93859 55.0979 7.66984 55.1177 7.64796C55.1365 7.62609 55.1802 7.85109 55.35 8.074C55.5198 8.29692 55.8167 8.51671 55.9813 8.774C56.1458 9.03234 56.1792 9.32921 56.1292 9.62296C56.0802 9.91671 55.9479 10.2073 55.7781 10.1782Z" stroke="black" stroke-width="0.779615" stroke-miterlimit="22.926"/>
</g>
<mask id="mask17_373_36640" style="mask-type:luminance" maskUnits="userSpaceOnUse" x="45" y="7" width="14" height="12">
<path d="M45.0667 7.50928H58.1333V18.1332H45.0667V7.50928Z" fill="white"/>
</mask>
<g mask="url(#mask17_373_36640)">
<path d="M52.9864 12.824C52.7666 12.4667 52.5479 12.1094 52.2604 11.8709C51.9718 11.6313 51.6156 11.5105 51.226 11.5469C50.8364 11.5823 50.4146 11.774 50.3812 11.8782C50.3489 11.9834 50.7052 12.0001 51.0666 12.1448C51.4291 12.2907 51.7968 12.5657 52.126 12.7271C52.4552 12.8896 52.7458 12.9386 52.8833 12.9365C53.0208 12.9334 53.0041 12.8782 52.9875 12.824H52.9864Z" stroke="black" stroke-width="0.779615" stroke-miterlimit="22.926"/>
</g>
<path d="M53.301 13.827C53.1562 13.752 52.9146 13.6916 52.6625 13.6479C52.4104 13.6041 52.1469 13.577 51.9323 13.6614C51.7187 13.7468 51.5542 13.9447 51.4364 14.2166C51.3177 14.4885 51.2469 14.8354 51.3125 14.8812C51.3781 14.9281 51.5812 14.6749 51.875 14.5187C52.1677 14.3614 52.5521 14.301 52.8458 14.2437C53.1385 14.1864 53.3417 14.1322 53.4187 14.0604C53.4958 13.9885 53.4458 13.8999 53.301 13.827Z" stroke="black" stroke-width="0.779615" stroke-miterlimit="22.926"/>
<mask id="mask18_373_36640" style="mask-type:luminance" maskUnits="userSpaceOnUse" x="48" y="7" width="12" height="13">
<path d="M48 7.50928H59.7333V19.4666H48V7.50928Z" fill="white"/>
</mask>
<g mask="url(#mask18_373_36640)">
<path d="M54.3687 14.2249C54.1875 14.0103 54.0062 13.7957 53.85 13.5603C53.6937 13.3238 53.5625 13.0655 53.4417 12.8134C53.3208 12.5603 53.2115 12.3134 53.274 12.2853C53.3375 12.2582 53.574 12.4499 53.8042 12.6259C54.0344 12.803 54.2594 12.9613 54.4021 13.1645C54.5448 13.3676 54.6052 13.6155 54.624 13.8165C54.6427 14.0165 54.6208 14.1707 54.5719 14.2311C54.5229 14.2915 54.4458 14.2582 54.3687 14.2259V14.2249Z" stroke="black" stroke-width="0.779615" stroke-miterlimit="22.926"/>
</g>
<mask id="mask19_373_36640" style="mask-type:luminance" maskUnits="userSpaceOnUse" x="47" y="7" width="13" height="13">
<path d="M47.4667 7.50928H59.2V19.7332H47.4667V7.50928Z" fill="white"/>
</mask>
<g mask="url(#mask19_373_36640)">
<path d="M52.7229 12.7583C53.0187 13.0823 53.3156 13.4062 53.551 13.6833C53.7875 13.9614 53.9625 14.1927 54.1385 14.4229" stroke="black" stroke-width="0.779615" stroke-miterlimit="22.926"/>
</g>
<mask id="mask20_373_36640" style="mask-type:luminance" maskUnits="userSpaceOnUse" x="50" y="7" width="12" height="11">
<path d="M50.6667 7.50928H61.0667V17.5999H50.6667V7.50928Z" fill="white"/>
</mask>
<g mask="url(#mask20_373_36640)">
<path d="M55.8989 12.428C55.9292 11.9998 55.9583 11.5728 55.9448 11.1363C55.9302 10.6988 55.8739 10.253 55.8167 9.80713" stroke="black" stroke-width="0.779615" stroke-miterlimit="22.926"/>
</g>
<path d="M42.5562 22.0552C42.3792 22.5104 42.2031 22.9666 42.1729 23.3677C42.1427 23.7687 42.2583 24.1146 42.3729 24.4604" stroke="black" stroke-width="0.779615" stroke-miterlimit="22.926"/>
<path d="M41.0219 21.4346C41.2521 21.6137 41.4833 21.7939 41.6833 22.0617C41.8844 22.3304 42.0542 22.6867 42.224 23.045" stroke="black" stroke-width="0.779615" stroke-miterlimit="22.926"/>
<path d="M40.9823 25.1875C41.1542 25.1708 41.3271 25.1542 41.5146 25.1885C41.7031 25.2219 41.9052 25.3063 42.1083 25.3906" stroke="black" stroke-width="0.779615" stroke-miterlimit="22.926"/>
<path d="M42.9708 26.0605C43.1937 26.2637 43.4167 26.4678 43.6562 26.6533C43.8958 26.8397 44.1531 27.0095 44.5167 27.2085C44.8823 27.4074 45.3542 27.6355 45.8281 27.8626" stroke="black" stroke-width="0.779615" stroke-miterlimit="22.926"/>
<path d="M48.3271 27.6082C48.4614 27.4405 48.5271 27.055 48.401 26.8332C48.275 26.6103 47.9562 26.5498 47.7594 26.654C47.5614 26.7582 47.4854 27.0269 47.5104 27.2259C47.5344 27.4238 47.6604 27.5498 47.825 27.6373C47.9896 27.7248 48.1927 27.7748 48.3271 27.6082Z" stroke="black" stroke-width="0.779615" stroke-miterlimit="22.926"/>
<path d="M47.8115 28.7148C47.824 28.9387 47.8365 29.1637 47.7948 29.3741C47.7521 29.5856 47.6542 29.7846 47.5177 29.9168C47.3812 30.0502 47.2052 30.1158 46.9948 30.0887C46.7833 30.0606 46.5365 29.9398 46.3937 29.795C46.251 29.6491 46.2135 29.4793 46.1031 29.4043C45.9938 29.3304 45.8135 29.3523 45.6438 29.3241C45.474 29.2971 45.3146 29.22 45.1938 29.0533C45.0729 28.8856 44.9906 28.6273 45.0406 28.4377C45.0896 28.2481 45.2708 28.1273 45.4844 28.02C45.6979 27.9127 45.9448 27.8189 46.1792 27.7148C46.4115 27.6106 46.6312 27.495 46.8615 27.445C47.0917 27.395 47.3333 27.4096 47.3177 27.4481C47.301 27.4866 47.0271 27.5481 46.7281 27.5825C46.4281 27.6158 46.1052 27.6221 45.8063 27.5502C45.5063 27.4793 45.2323 27.3304 45.0604 27.1241C44.8875 26.9179 44.8167 26.6543 44.8656 26.3793C44.9146 26.1054 45.0844 25.82 45.2927 25.6241C45.501 25.4293 45.7479 25.3241 45.8198 25.3387C45.8906 25.3523 45.7865 25.4835 45.776 25.6293C45.7646 25.7752 45.8469 25.9346 45.9823 25.9804C46.1167 26.0273 46.3031 25.9616 46.3354 25.8408C46.3687 25.72 46.2479 25.5439 46.149 25.3762C46.05 25.2085 45.9729 25.0491 46.0479 24.8731C46.1219 24.6971 46.3469 24.5054 46.6083 24.4366C46.8708 24.3689 47.1719 24.4231 47.3604 24.5658C47.55 24.7085 47.6281 24.9398 47.6458 25.2148C47.6635 25.4887 47.6198 25.8085 47.6469 25.9783C47.674 26.1481 47.7729 26.17 47.8281 25.995C47.8833 25.8189 47.8937 25.445 47.9948 25.1168C48.0969 24.7898 48.2896 24.5064 48.5635 24.4043C48.8375 24.3033 49.1937 24.3825 49.35 24.5429C49.5052 24.7033 49.4615 24.945 49.4229 25.1543C49.3844 25.3627 49.3521 25.5387 49.4479 25.571C49.5437 25.6043 49.7687 25.4939 49.7792 25.3679C49.7906 25.2418 49.5875 25.0991 49.6312 25.0606C49.675 25.0221 49.9656 25.0877 50.1802 25.3387C50.3937 25.5877 50.5312 26.0221 50.5583 26.3189C50.5854 26.6158 50.5031 26.7752 50.2219 26.9012C49.9385 27.0273 49.4562 27.121 49.2396 27.2335C49.0229 27.346 49.0719 27.4783 49.2531 27.52C49.4344 27.5606 49.7469 27.5116 49.9771 27.4075C50.2073 27.3033 50.3552 27.1429 50.4469 27.2012C50.5365 27.2596 50.5698 27.5335 50.5729 27.8137C50.575 28.095 50.5479 28.3804 50.4604 28.6325C50.3729 28.8856 50.225 29.1054 50.0187 29.2023C49.8125 29.2981 49.549 29.27 49.3875 29.3012C49.226 29.3304 49.1656 29.4189 49.1021 29.5262C49.0396 29.6335 48.974 29.7596 48.8219 29.8398C48.6719 29.9189 48.4354 29.9523 48.249 29.8835C48.0625 29.8148 47.925 29.6439 47.851 29.3887C47.7771 29.1335 47.7667 28.7929 47.8125 28.7158C47.8594 28.6377 47.9635 28.8252 47.9823 29.0783C48.0021 29.3304 47.9365 29.6502 47.9531 29.8689C47.9698 30.0887 48.0687 30.2106 48.2437 30.2731C48.4198 30.3366 48.6719 30.3418 48.9156 30.3096C49.1604 30.2762 49.3958 30.2054 49.6146 30.0783C49.8344 29.9523 50.0375 29.771 50.1667 29.6012C50.2948 29.4304 50.35 29.271 50.4052 29.0429C50.4604 28.8158 50.5146 28.5179 50.5698 28.2221" stroke="black" stroke-width="0.779615" stroke-miterlimit="22.926"/>
<path d="M45.4823 28.02C45.3385 28.2669 45.1958 28.5138 45.3 28.6617C45.4042 28.8106 45.7562 28.8617 46.0333 28.9669C46.3114 29.0721 46.5146 29.2315 46.6542 29.3877C46.7937 29.545 46.8708 29.6981 46.9948 29.7513C47.1177 29.8034 47.2875 29.7534 47.4208 29.7034C47.5542 29.6534 47.6489 29.6023 47.7458 29.5523" stroke="black" stroke-width="0.779615" stroke-miterlimit="22.926"/>
<path d="M52.2781 27C52.5031 27.1156 52.7281 27.2312 52.7281 27.4562C52.7281 27.6812 52.5031 28.0166 52.5562 28.2885C52.6083 28.5604 52.9375 28.7687 53.2166 28.8291C53.4969 28.8895 53.7271 28.802 53.925 28.7875C54.1229 28.7739 54.2875 28.8343 54.3531 28.9802C54.4187 29.125 54.3854 29.3562 54.525 29.4604C54.6646 29.5645 54.9771 29.5427 55.0208 29.2906C55.0646 29.0375 54.8406 28.5541 54.7635 28.452C54.6864 28.35 54.7583 28.6312 54.8625 28.8947C54.9666 29.1583 55.1031 29.4062 55.3198 29.452C55.5364 29.4989 55.8323 29.3458 55.9969 29.1364C56.1614 28.9281 56.1948 28.6645 56.326 28.5322C56.4573 28.401 56.6885 28.401 56.9239 28.3791C57.1604 28.3572 57.401 28.3135 57.475 28.0989C57.55 27.8854 57.4562 27.5 57.2666 27.3041C57.0781 27.1093 56.7927 27.1041 56.5052 27.1093C56.2166 27.1145 55.926 27.1312 55.6739 27.1114C55.4219 27.0927 55.2073 27.0375 55.2052 27.0656C55.2021 27.0927 55.4104 27.2031 55.6604 27.2302C55.9094 27.2572 56.2 27.2031 56.4125 26.9968C56.6229 26.7906 56.7552 26.4343 56.7771 26.052C56.7989 25.6697 56.7114 25.2635 56.5656 25.0895C56.4208 24.9177 56.2177 24.9781 56.0781 25.0875C55.9375 25.1968 55.8604 25.3562 55.7271 25.4031C55.5916 25.4489 55.4 25.3833 55.3541 25.2552C55.3073 25.126 55.4062 24.9333 55.5427 24.8395C55.6802 24.7458 55.8552 24.752 55.8114 24.651C55.7677 24.5489 55.5041 24.3406 55.2187 24.2552C54.9333 24.1697 54.6271 24.2083 54.4187 24.3572C54.2104 24.5052 54.101 24.7635 54.0729 25.0281C54.0458 25.2916 54.1 25.5604 54.201 25.7312C54.3031 25.901 54.451 25.9729 54.4562 25.876C54.4614 25.7802 54.325 25.5156 54.201 25.2687C54.0781 25.0218 53.9687 24.7906 53.8062 24.6291C53.6448 24.4666 53.4312 24.3739 53.2687 24.3927C53.1073 24.4125 52.9979 24.5437 52.9375 24.7302C52.8771 24.9177 52.8666 25.1593 52.8135 25.351C52.7614 25.5427 52.6687 25.6864 52.5125 25.7583C52.3552 25.8291 52.1364 25.8291 52.0021 25.9083C51.8666 25.9885 51.8177 26.1479 51.8177 26.3208C51.8177 26.4937 51.8666 26.6812 52.101 26.7854C52.3333 26.8895 52.751 26.9114 53.0469 26.9697C53.3427 27.027 53.5187 27.1208 53.5864 27.2364C53.6552 27.352 53.6166 27.4885 53.4604 27.4531C53.3041 27.4177 53.0302 27.2093 52.7448 27.0802C52.4594 26.951 52.1635 26.901 51.9854 27.077C51.8062 27.2541 51.7458 27.6541 51.7958 27.9739C51.8448 28.2927 52.0041 28.5281 52.2344 28.6958C52.4646 28.8635 52.7666 28.9625 52.9344 29.0916C53.101 29.2197 53.1344 29.3802 53.2458 29.4927C53.3583 29.6052 53.551 29.6718 53.7291 29.6822C53.9083 29.6937 54.0729 29.6489 54.1823 29.5562C54.2916 29.4625 54.3469 29.3197 54.4021 29.177" stroke="black" stroke-width="0.779615" stroke-miterlimit="22.926"/>
<path d="M54.0344 26.8554C53.9469 27.0169 53.9031 27.2481 53.9906 27.4179C54.0781 27.5877 54.2979 27.6981 54.5031 27.6575C54.7083 27.6158 54.9 27.4242 54.9531 27.2283C55.0052 27.0325 54.9167 26.8356 54.8 26.7148C54.6813 26.594 54.5333 26.5502 54.3938 26.5742C54.2542 26.5992 54.1229 26.6929 54.0344 26.8554Z" stroke="black" stroke-width="0.779615" stroke-miterlimit="22.926"/>
<path d="M53.2552 30.22C53.1344 30.4345 53.0677 30.7043 53.1344 30.9627C53.2 31.221 53.3979 31.4679 53.6062 31.572C53.8146 31.6773 54.0344 31.6387 54.0781 31.4898C54.1219 31.3418 53.9906 31.0835 53.8448 30.9241C53.7 30.7637 53.5406 30.7033 53.5021 30.7585C53.4635 30.8137 53.5458 30.9845 53.6885 31.1054C53.8312 31.2262 54.0344 31.297 54.1958 31.2533C54.3583 31.2095 54.4792 31.0502 54.5083 30.8554C54.5385 30.6606 54.4792 30.4293 54.3302 30.295C54.1823 30.1606 53.9458 30.122 53.8031 30.1356C53.6604 30.1491 53.6115 30.2158 53.7125 30.2762C53.8146 30.3366 54.0667 30.3918 54.2646 30.3502C54.4625 30.3095 54.6052 30.172 54.6427 30.0398C54.6812 29.9085 54.6156 29.7814 54.4458 29.7231C54.276 29.6648 54.0021 29.6741 53.7781 29.7595C53.5531 29.845 53.376 30.0054 53.2552 30.221V30.22Z" stroke="black" stroke-width="0.779615" stroke-miterlimit="22.926"/>
<path d="M50.6521 29.8301C50.7542 29.8353 50.8906 29.7364 50.8854 29.7208C50.8802 29.7041 50.7323 29.7697 50.6437 29.9708C50.5562 30.1718 50.5281 30.5062 50.651 30.7041C50.775 30.902 51.0489 30.9635 51.2437 30.8468C51.4385 30.7312 51.5542 30.4406 51.5594 30.2656C51.5646 30.0885 51.4604 30.0281 51.4083 30.1385C51.3562 30.2489 51.3562 30.5291 51.4739 30.6916C51.5917 30.8531 51.8281 30.8968 52.0114 30.8458C52.1948 30.7926 52.326 30.6447 52.3864 30.4478C52.4469 30.2489 52.4354 30.002 52.3375 29.8458C52.2385 29.6895 52.0521 29.6239 52.0083 29.6426C51.9646 29.6624 52.0635 29.7666 52.1927 29.8239C52.3208 29.8822 52.4802 29.8926 52.5625 29.7687C52.6448 29.6458 52.65 29.3864 52.5833 29.1864C52.5156 28.9853 52.375 28.8416 52.1792 28.8083C51.9854 28.7749 51.7354 28.8531 51.6687 28.9333C51.6031 29.0135 51.7177 29.0958 51.8417 29.0572C51.9656 29.0187 52.1 28.8583 52.1177 28.7249C52.1344 28.5926 52.0364 28.4874 51.8167 28.4489C51.5969 28.4103 51.2542 28.4395 51.0802 28.5447C50.9062 28.6499 50.901 28.8312 50.9802 28.9885C51.0604 29.1458 51.225 29.277 51.2521 29.2687C51.2792 29.2614 51.1698 29.1124 51.051 29.0687C50.9333 29.0249 50.8073 29.0853 50.7 29.1916C50.5937 29.2989 50.5052 29.4531 50.4948 29.5843C50.4833 29.7166 50.55 29.827 50.651 29.8322L50.6521 29.8301Z" stroke="black" stroke-width="0.779615" stroke-miterlimit="22.926"/>
<path d="M53.2552 30.2196C53.1052 30.1904 52.9552 30.1613 52.8115 30.1019C52.6677 30.0425 52.5292 29.9529 52.3917 29.8623" stroke="black" stroke-width="0.779615" stroke-miterlimit="22.926"/>
<path d="M50.524 29.7407C50.3198 29.9647 50.1135 30.1886 49.9344 30.4959C49.7552 30.8032 49.6021 31.1928 49.5354 31.6793C49.4698 32.1657 49.4917 32.748 49.5104 32.9209C49.5302 33.0938 49.5469 32.8574 49.6969 32.6105C49.8479 32.3636 50.1333 32.1043 50.3635 31.8793C50.5938 31.6543 50.7698 31.4616 50.8531 31.3022C50.9354 31.1438 50.9281 31.0178 50.9188 30.8918" stroke="black" stroke-width="0.779615" stroke-miterlimit="22.926"/>
<path d="M58.3333 28.1115C58.3229 26.1418 58.3125 24.173 58.3125 22.5897C58.3125 21.0063 58.3239 19.8084 58.2302 19.198C58.1364 18.5886 57.9396 18.5667 56.4583 18.4897C54.9771 18.4126 52.2125 18.2813 49.8427 18.2376C48.6312 18.2147 47.5219 18.2157 46.5802 18.2272M45.1896 18.2522C44.8885 18.2605 44.6208 18.2678 44.3906 18.2761C43.3052 18.3136 43.0521 18.3459 42.9437 18.9001M42.8917 21.824C42.8948 21.9772 42.8979 22.1334 42.901 22.2949C42.9281 23.6418 42.9552 25.3209 42.9812 27.0543M42.9917 27.6751C42.9937 27.8293 42.9958 27.9855 42.9979 28.1418" stroke="black" stroke-width="0.779615" stroke-miterlimit="22.926"/>
<path d="M53.924 23.9481C53.951 23.8731 54.1271 23.8293 54.2646 23.8678C54.4021 23.9064 54.501 24.0272 54.6396 24.0106C54.7802 23.9939 54.9604 23.8408 55.076 23.6731C55.1906 23.5053 55.2396 23.3241 55.2125 23.1126C55.1854 22.9022 55.0813 22.6595 55.1115 22.5095C55.1417 22.3585 55.3063 22.2981 55.3115 22.2428C55.3167 22.1876 55.1635 22.1376 55.0625 21.9106C54.9604 21.6824 54.9115 21.2751 54.7635 21.1001C54.6156 20.9241 54.3688 20.9793 54.1542 21.1168C53.9406 21.2543 53.7594 21.4741 53.5802 21.7241C53.4021 21.9741 53.2271 22.2543 53.2521 22.3449C53.276 22.4356 53.501 22.3376 53.6573 22.1856C53.8146 22.0345 53.9021 21.8314 53.924 21.5949C53.9458 21.3585 53.9021 21.0887 53.6573 20.9408C53.4135 20.7928 52.9688 20.7647 52.649 20.7835C52.3271 20.8033 52.1302 20.8689 52.0396 21.0116C51.949 21.1543 51.9646 21.3741 52.0198 21.5783C52.075 21.7814 52.1677 21.9678 52.1406 22.1272C52.1135 22.2876 51.9646 22.4189 51.8385 22.3772C51.7125 22.3366 51.6083 22.122 51.6031 21.8908C51.5979 21.6606 51.6906 21.4126 51.6323 21.3022C51.575 21.1928 51.3667 21.2199 51.0979 21.297C50.8292 21.3741 50.5 21.5012 50.299 21.6793C50.099 21.8585 50.0281 22.0887 50.099 22.3699C50.1708 22.6501 50.3854 22.9803 50.5938 23.146C50.8021 23.3106 51.0052 23.3095 51.0323 23.2626C51.0594 23.2158 50.9115 23.1231 50.7031 23.0126C50.4948 22.9033 50.226 22.7762 49.951 22.7251C49.6771 22.672 49.3969 22.6949 49.1938 22.7928C48.9906 22.8918 48.8646 23.0678 48.826 23.3085C48.7875 23.5491 48.8375 23.8543 49.0156 23.997C49.1938 24.1397 49.501 24.1199 49.6646 24.1856C49.8292 24.2501 49.851 24.3981 49.9115 24.522C49.9719 24.646 50.0708 24.7449 50.224 24.7856C50.3771 24.8272 50.5865 24.8106 50.7865 24.7303C50.9865 24.6512 51.1781 24.5074 51.3375 24.3293C51.4969 24.1501 51.6229 23.9366 51.7458 23.8449C51.8698 23.7543 51.9906 23.7876 52.0177 23.8918C52.0448 23.996 51.9792 24.172 51.7781 24.3085C51.5781 24.447 51.2438 24.546 51.0625 24.6689C50.8813 24.7928 50.8542 24.9408 50.9635 25.0345C51.0729 25.1283 51.3198 25.1668 51.551 25.1418C51.7813 25.1168 51.9958 25.0293 52.1677 25.0178C52.3406 25.0064 52.4729 25.0731 52.626 25.0449C52.7792 25.0178 52.9552 24.897 53.1542 24.8126C53.3542 24.7272 53.5781 24.6793 53.7448 24.5887C53.9125 24.4981 54.024 24.3647 54.0188 24.247C54.0135 24.1283 53.8927 24.0241 53.9198 23.9491L53.924 23.9481Z" stroke="black" stroke-width="0.779615" stroke-miterlimit="22.926"/>
<path d="M48.9469 23.0021C49.0292 22.9313 49.1125 22.8615 49.2531 22.9428C49.3948 23.024 49.5937 23.2563 49.6729 23.4886C49.7521 23.7219 49.7094 23.9521 49.8219 24.1167C49.9333 24.2813 50.201 24.3803 50.4385 24.4094C50.6771 24.4396 50.8854 24.4011 51.0625 24.3344C51.2417 24.2678 51.3896 24.173 51.5375 24.0782" stroke="black" stroke-width="0.779615" stroke-miterlimit="22.926"/>
<path d="M52.174 23.5415C52.3437 23.5436 52.5906 23.5332 52.7615 23.4342C52.9312 23.3353 53.025 23.1488 52.9698 22.9592C52.9146 22.7696 52.7115 22.5769 52.4979 22.5311C52.2844 22.4842 52.0594 22.5832 51.9437 22.7696C51.8281 22.9571 51.8229 23.2311 51.8667 23.378C51.9104 23.5228 52.0042 23.5394 52.174 23.5425V23.5415Z" stroke="black" stroke-width="0.779615" stroke-miterlimit="22.926"/>
<path d="M54.0802 23.8596C54.2698 23.8356 54.4594 23.8106 54.5781 23.7127C54.6979 23.6159 54.7469 23.445 54.7333 23.2669C54.7198 23.0877 54.6427 22.9013 54.6427 22.7638C54.6427 22.6263 54.7198 22.5388 54.825 22.4804C54.9302 22.4211 55.0635 22.3929 55.1958 22.3638" stroke="black" stroke-width="0.779615" stroke-miterlimit="22.926"/>
<path d="M50.8635 28.5821C50.7646 28.3269 50.6677 28.0696 50.6729 27.7925C50.6781 27.5154 50.7875 27.2165 50.9104 26.9686C51.0333 26.7206 51.1698 26.5227 51.25 26.2696C51.3292 26.0175 51.351 25.7092 51.3844 25.6873C51.4177 25.6654 51.4614 25.93 51.5416 26.2467C51.6208 26.5644 51.7354 26.9342 51.75 27.2644C51.7635 27.5936 51.676 27.8821 51.5239 28.1227C51.3719 28.3613 51.1542 28.5519 51.0333 28.6206C50.9125 28.6894 50.8885 28.6373 50.8635 28.5831V28.5821Z" stroke="black" stroke-width="0.779615" stroke-miterlimit="22.926"/>
<mask id="mask21_373_36640" style="mask-type:luminance" maskUnits="userSpaceOnUse" x="50" y="23" width="17" height="15">
<path d="M50.9333 23.4668H66.6875V37.8668H50.9333V23.4668Z" fill="white"/>
</mask>
<g mask="url(#mask21_373_36640)">
<path d="M56.2052 28.7334C56.5969 28.8542 56.9885 28.974 57.4198 29.3969C57.8521 29.8188 58.3239 30.5438 58.7489 31.0834C59.1739 31.6219 59.5521 31.973 59.9312 32.2074C60.3094 32.4407 60.6885 32.5563 60.9927 32.6136C61.2979 32.6719 61.5281 32.6719 61.7583 32.6719" stroke="black" stroke-width="0.779615" stroke-miterlimit="22.926"/>
</g>
<mask id="mask22_373_36640" style="mask-type:luminance" maskUnits="userSpaceOnUse" x="56" y="27" width="11" height="12">
<path d="M56.2667 27.2002H66.6875V38.4002H56.2667V27.2002Z" fill="white"/>
</mask>
<g mask="url(#mask22_373_36640)">
<path d="M61.3698 32.6531C61.4406 32.5542 61.6917 32.4635 61.9885 32.474C62.2865 32.4833 62.6312 32.5938 62.9375 32.6854C63.2437 32.776 63.5135 32.8469 63.6115 32.8854C63.7104 32.924 63.6385 32.9292 63.4302 32.9792C63.2219 33.0281 62.876 33.1229 62.5333 33.1281C62.1906 33.1333 61.851 33.051 61.6271 32.9563C61.4042 32.8615 61.2979 32.7531 61.3698 32.6542V32.6531Z" stroke="black" stroke-width="0.779615" stroke-miterlimit="22.926"/>
</g>
<path d="M57.6281 29.4112C57.7406 29.3675 58.0615 29.3373 58.3823 29.3456C58.7021 29.3519 59.0198 29.3967 59.3188 29.4821C59.6177 29.5675 59.8969 29.6935 59.875 29.7675C59.8531 29.8425 59.5292 29.8644 59.2583 29.8998C58.9865 29.9352 58.7677 29.9842 58.5177 29.9331C58.2688 29.88 57.9885 29.7269 57.8 29.6206C57.6115 29.5144 57.5156 29.456 57.6281 29.4123V29.4112Z" stroke="black" stroke-width="0.779615" stroke-miterlimit="22.926"/>
<path d="M58.8677 31.4148C58.9948 31.444 59.2114 31.6335 59.3104 31.87C59.4083 32.1065 59.3906 32.3887 59.3448 32.6419C59.3 32.896 59.2281 33.1221 59.1489 33.1512C59.0687 33.1815 58.9812 33.0169 58.9073 32.8023C58.8333 32.5887 58.7729 32.3252 58.7344 32.1242C58.6969 31.9231 58.6802 31.7867 58.6906 31.6512C58.7021 31.5169 58.7406 31.3846 58.8677 31.4137V31.4148Z" stroke="black" stroke-width="0.779615" stroke-miterlimit="22.926"/>
<path d="M52.7396 17.2582C52.9916 17.2311 53.2448 17.203 53.3948 17.0571C53.5458 16.9113 53.5958 16.6478 53.4604 16.4394C53.326 16.2301 53.0083 16.0759 52.7531 16.0978C52.4989 16.1196 52.3062 16.3186 52.2791 16.5321C52.2521 16.7457 52.3885 16.978 52.4927 17.1009C52.5969 17.2249 52.6687 17.2415 52.7396 17.2582Z" stroke="black" stroke-width="0.779615" stroke-miterlimit="22.926"/>
<path d="M52.3698 17.8081C52.2573 18.0092 52.1448 18.2102 51.8031 18.2508C51.4614 18.2904 50.8906 18.1696 50.6573 18.0019C50.425 17.8352 50.5292 17.6196 50.5635 17.4748C50.6 17.329 50.5667 17.2519 50.4698 17.0571C50.3739 16.8623 50.2156 16.5487 50.1927 16.2987C50.1708 16.0487 50.2864 15.8623 50.4364 15.755C50.5875 15.6487 50.7739 15.6206 50.8812 15.6925C50.9885 15.7633 51.0167 15.9342 50.9802 16.1154C50.9448 16.2967 50.8458 16.4894 50.8135 16.6654C50.7802 16.8415 50.8135 16.9998 50.8739 17.1571C50.9344 17.3144 51.0219 17.4675 51.05 17.6217C51.0771 17.7748 51.0448 17.93 51.2 18.004C51.3562 18.079 51.7021 18.0727 51.9739 17.9602C52.2448 17.8477 52.4427 17.6279 52.4896 17.4873C52.5354 17.3477 52.4312 17.2873 52.3854 17.4373C52.3385 17.5862 52.3489 17.9477 52.4812 18.1644C52.6125 18.3821 52.8656 18.455 53.1177 18.4508C53.3698 18.4456 53.6229 18.3633 53.7344 18.2092C53.8469 18.056 53.8198 17.83 53.8917 17.7446C53.9625 17.6592 54.1333 17.7144 54.3333 17.6842C54.5333 17.654 54.7635 17.5383 54.9583 17.2415C55.1531 16.9446 55.3114 16.4665 55.3094 16.1779C55.3062 15.8894 55.1417 15.7904 54.9687 15.7487C54.7969 15.7081 54.6156 15.7248 54.451 15.8456C54.2864 15.9665 54.1385 16.1915 53.9906 16.2717C53.8427 16.3519 53.6948 16.2852 53.7187 16.1508C53.7437 16.0154 53.9417 15.8133 54.1333 15.7165C54.325 15.6206 54.5114 15.6321 54.676 15.5685C54.8406 15.505 54.9823 15.3675 54.9802 15.156C54.9771 14.9456 54.8292 14.6592 54.5771 14.5133C54.325 14.3685 53.9677 14.3633 53.7208 14.4019C53.4739 14.4404 53.3364 14.5227 53.1583 14.4977C52.9802 14.4737 52.7614 14.3415 52.5396 14.3269C52.3198 14.3133 52.0969 14.4164 51.9594 14.6144C51.8219 14.8123 51.7708 15.105 51.8594 15.3446C51.9479 15.5831 52.1781 15.7706 52.4083 15.9571" stroke="black" stroke-width="0.779615" stroke-miterlimit="22.926"/>
<path d="M52.3302 15.8906C52.3188 15.7531 52.3063 15.6156 52.2448 15.402C52.1833 15.1895 52.0719 14.902 51.8385 14.7395C51.6063 14.577 51.251 14.5416 50.9917 14.5947C50.7323 14.6479 50.5677 14.7906 50.4688 14.9697C50.3698 15.1489 50.3375 15.3624 50.3104 15.5395C50.2833 15.7166 50.2625 15.8552 50.2417 15.9947" stroke="black" stroke-width="0.779615" stroke-miterlimit="22.926"/>
<mask id="mask23_373_36640" style="mask-type:luminance" maskUnits="userSpaceOnUse" x="51" y="7" width="14" height="13">
<path d="M51.7333 7.50928H64.8V19.1999H51.7333V7.50928Z" fill="white"/>
</mask>
<g mask="url(#mask23_373_36640)">
<path d="M57.5781 13.1365C57.3969 13.1147 57.2156 13.0928 57.0979 12.9199C56.9802 12.747 56.926 12.422 56.9937 12.2292C57.0625 12.0376 57.2552 11.9772 57.4031 12.0834C57.551 12.1907 57.6552 12.4657 57.6469 12.6095C57.6396 12.7522 57.5187 12.7626 57.4656 12.6042C57.4135 12.4438 57.4302 12.1147 57.6062 11.9469C57.7812 11.7792 58.1156 11.774 58.3458 11.8292C58.576 11.8845 58.7021 11.999 58.7021 12.1886C58.7021 12.3782 58.576 12.6428 58.4969 12.7105C58.4167 12.7792 58.3844 12.6532 58.5021 12.5876C58.6198 12.5209 58.8885 12.5157 59.1083 12.5678C59.3281 12.6209 59.4979 12.7303 59.5062 12.873C59.5135 13.0157 59.3604 13.1917 59.1792 13.2959C58.9979 13.4011 58.7896 13.4345 58.6198 13.3845C58.45 13.3345 58.3187 13.2022 58.3896 13.1917C58.4604 13.1803 58.7354 13.2907 58.8833 13.4417C59.0312 13.5928 59.0531 13.7855 58.9708 13.9001C58.8885 14.0157 58.7021 14.0542 58.5073 13.9657C58.3125 13.8782 58.1104 13.6636 57.9531 13.5053C57.7969 13.3459 57.6875 13.2407 57.5781 13.1365Z" stroke="black" stroke-width="0.779615" stroke-miterlimit="22.926"/>
</g>
<path d="M57.6448 13.2002C57.3313 13.3606 57.0188 13.52 56.774 13.7242C56.5302 13.9273 56.3542 14.1752 56.1792 14.4221" stroke="black" stroke-width="0.779615" stroke-miterlimit="22.926"/>
<path d="M55.7344 15.5104C55.6635 15.2969 55.5917 15.0823 55.5896 14.9292C55.5865 14.775 55.6521 14.6813 55.7615 14.6073C55.8708 14.5323 56.025 14.4781 56.1458 14.5135C56.2667 14.549 56.3542 14.675 56.3688 14.8188C56.3823 14.9615 56.3219 15.1208 56.2969 15.1479C56.2719 15.175 56.2823 15.0708 56.3979 14.9719C56.5135 14.8729 56.7323 14.7802 56.8948 14.7604C57.0563 14.7406 57.1604 14.7969 57.1896 14.9135C57.2198 15.0323 57.176 15.2135 57.1323 15.3948" stroke="black" stroke-width="0.779615" stroke-miterlimit="22.926"/>
<path d="M55.7344 15.5106C55.5698 15.2637 55.4052 15.0168 55.3208 14.772C55.2354 14.5272 55.2302 14.2856 55.3208 14.1158C55.4104 13.9449 55.5979 13.846 55.7562 13.9095C55.9156 13.972 56.0469 14.1981 56.1125 14.3106C56.1781 14.4231 56.1781 14.4231 56.3104 14.3637C56.4417 14.3033 56.7052 14.1824 56.8948 14.1491C57.0833 14.1158 57.1989 14.171 57.2167 14.2918C57.2344 14.4116 57.1552 14.596 57.2344 14.6585C57.3146 14.722 57.5521 14.6637 57.6937 14.6918C57.8354 14.721 57.8792 14.8356 57.8375 14.9876C57.7969 15.1387 57.6708 15.3251 57.5229 15.4303C57.375 15.5345 57.2052 15.5564 57.0344 15.5783" stroke="black" stroke-width="0.779615" stroke-miterlimit="22.926"/>
<mask id="mask24_373_36640" style="mask-type:luminance" maskUnits="userSpaceOnUse" x="49" y="7" width="14" height="12">
<path d="M49.6 7.50928H62.1333V18.9332H49.6V7.50928Z" fill="white"/>
</mask>
<g mask="url(#mask24_373_36640)">
<path d="M54.7281 13.7289C54.6927 13.6227 54.7604 13.4289 54.9104 13.2414C55.0594 13.0539 55.2896 12.8737 55.5396 12.7248C55.7886 12.5758 56.0573 12.4602 56.3406 12.2768C56.6229 12.0925 56.9188 11.8393 57.0177 11.7893C57.1167 11.7404 57.0177 11.8945 56.9104 12.1383C56.8042 12.3831 56.6885 12.7185 56.4729 12.9748C56.2552 13.2289 55.9375 13.406 55.6823 13.5435C55.4271 13.681 55.2344 13.78 55.0698 13.8185C54.9031 13.857 54.7635 13.8362 54.7281 13.7289Z" stroke="black" stroke-width="0.779615" stroke-miterlimit="22.926"/>
</g>
<path d="M55.3219 17.1998C55.4229 17.205 55.5604 17.106 55.5542 17.0904C55.549 17.0738 55.401 17.1394 55.3125 17.3404C55.225 17.5415 55.1969 17.8758 55.3208 18.0738C55.4437 18.2727 55.7177 18.3331 55.9135 18.2175C56.1083 18.1019 56.2229 17.8102 56.2281 17.6352C56.2333 17.4592 56.1292 17.3988 56.0781 17.5092C56.025 17.6185 56.025 17.8988 56.1437 18.0613C56.2615 18.2238 56.4969 18.2675 56.6802 18.2154C56.8646 18.1623 56.9958 18.0144 57.0562 17.8175C57.1167 17.6196 57.1052 17.3717 57.0073 17.2154C56.9083 17.0592 56.7219 16.9935 56.6781 17.0123C56.6344 17.0321 56.7333 17.1363 56.8615 17.1935C56.9906 17.2519 57.15 17.2623 57.2323 17.1383C57.3146 17.0154 57.3198 16.756 57.2521 16.556C57.1844 16.355 57.0437 16.2113 56.849 16.1779C56.6542 16.1446 56.4052 16.2227 56.3385 16.3029C56.2719 16.3831 56.3865 16.4654 56.5104 16.4269C56.6354 16.3883 56.7687 16.2279 56.7865 16.0946C56.8042 15.9623 56.7062 15.8571 56.4865 15.8185C56.2656 15.781 55.924 15.8092 55.75 15.9144C55.575 16.0196 55.5698 16.2019 55.65 16.3581C55.7292 16.5154 55.8937 16.6467 55.9208 16.6394C55.9479 16.631 55.8385 16.4821 55.7208 16.4383C55.6021 16.3946 55.476 16.455 55.3698 16.5623C55.2625 16.6685 55.174 16.8227 55.1635 16.955C55.1521 17.0863 55.2187 17.1967 55.3208 17.2019L55.3219 17.1998Z" stroke="black" stroke-width="0.779615" stroke-miterlimit="22.926"/>
<path d="M57.1135 17.3843C57.3021 17.1853 57.4917 16.9874 57.7437 16.8728C57.9948 16.7572 58.3115 16.728 58.5875 16.7322C58.8646 16.7364 59.1021 16.7749 59.3635 16.7384C59.625 16.7009 59.9125 16.5895 59.9458 16.6093C59.9802 16.6291 59.7615 16.7832 59.5094 16.9916C59.2583 17.1999 58.974 17.4634 58.6823 17.6176C58.3906 17.7718 58.0937 17.8166 57.8115 17.7822C57.5302 17.7478 57.2656 17.6332 57.1521 17.5541C57.0375 17.4749 57.075 17.4301 57.1125 17.3853L57.1135 17.3843Z" stroke="black" stroke-width="0.779615" stroke-miterlimit="22.926"/>
<path d="M22.6772 87.3768C22.2189 87.3768 21.8043 87.2758 21.4356 87.0727C21.0689 86.8674 20.7793 86.5852 20.5689 86.2268C20.3606 85.8664 20.2564 85.4633 20.2564 85.0185C20.2564 84.5716 20.3606 84.1685 20.5689 83.8102C20.7793 83.4497 21.07 83.1674 21.4397 82.9643C21.8116 82.7622 22.2272 82.6602 22.6856 82.6602C23.0293 82.6602 23.346 82.7185 23.6356 82.8352C23.9272 82.9497 24.1752 83.1164 24.3814 83.3352L24.0689 83.6477C23.7075 83.281 23.2502 83.0977 22.6981 83.0977C22.3314 83.0977 21.9981 83.1831 21.6981 83.3518C21.3981 83.5185 21.1627 83.7477 20.9939 84.0393C20.8241 84.331 20.7397 84.6581 20.7397 85.0185C20.7397 85.3799 20.8241 85.706 20.9939 85.9977C21.1627 86.2893 21.3981 86.5206 21.6981 86.6893C21.9981 86.856 22.3314 86.9393 22.6981 86.9393C23.2533 86.9393 23.7106 86.7539 24.0689 86.381L24.3814 86.6935C24.1752 86.9133 23.9252 87.0831 23.6314 87.2018C23.3397 87.3185 23.021 87.3768 22.6772 87.3768Z" fill="#423F3F"/>
<path d="M28.8282 87.3768C28.3699 87.3768 27.9543 87.2747 27.5824 87.0685C27.2095 86.8633 26.9178 86.581 26.7074 86.2227C26.4991 85.8643 26.3949 85.4633 26.3949 85.0185C26.3949 84.5716 26.4991 84.1706 26.7074 83.8143C26.9178 83.456 27.2095 83.1747 27.5824 82.9685C27.9543 82.7633 28.3699 82.6602 28.8282 82.6602C29.2886 82.6602 29.7032 82.7622 30.0699 82.9643C30.4386 83.1674 30.7293 83.4497 30.9407 83.8102C31.1543 84.1685 31.2616 84.5716 31.2616 85.0185C31.2616 85.4633 31.1543 85.8664 30.9407 86.2268C30.7293 86.5852 30.4386 86.8674 30.0699 87.0727C29.7032 87.2758 29.2886 87.3768 28.8282 87.3768ZM28.8282 86.9393C29.1949 86.9393 29.5251 86.856 29.8199 86.6893C30.1168 86.5227 30.3491 86.2935 30.5157 86.0018C30.6845 85.7081 30.7699 85.3799 30.7699 85.0185C30.7699 84.6581 30.6845 84.3299 30.5157 84.0352C30.3491 83.7414 30.1168 83.5122 29.8199 83.3477C29.5251 83.181 29.1949 83.0977 28.8282 83.0977C28.4616 83.0977 28.1293 83.181 27.8324 83.3477C27.5345 83.5122 27.3011 83.7414 27.1324 84.0352C26.9626 84.3299 26.8782 84.6581 26.8782 85.0185C26.8782 85.3799 26.9626 85.7081 27.1324 86.0018C27.3011 86.2935 27.5345 86.5227 27.8324 86.6893C28.1293 86.856 28.4616 86.9393 28.8282 86.9393Z" fill="#423F3F"/>
<path d="M37.6114 82.7021V87.3355H37.2072L34.2281 83.573V87.3355H33.7364V82.7021H34.1406L37.1281 86.4605V82.7021H37.6114Z" fill="#423F3F"/>
<path d="M40.989 83.123V84.9438H43.3849V85.3688H40.989V87.3355H40.4974V82.7021H43.6765V83.123H40.989Z" fill="#423F3F"/>
<path d="M49.3456 86.9105V87.3355H46.0664V82.7021H49.2456V83.123H46.5581V84.773H48.9539V85.1896H46.5581V86.9105H49.3456Z" fill="#423F3F"/>
<path d="M51.8738 82.7021H52.3655V87.3355H51.8738V82.7021Z" fill="#423F3F"/>
<path d="M56.151 83.123H54.5219V82.7021H58.2719V83.123H56.6427V87.3355H56.151V83.123Z" fill="#423F3F"/>
<path d="M63.3377 86.098H60.7543L60.2002 87.3355H59.6877L61.8085 82.7021H62.2918L64.4085 87.3355H63.8918L63.3377 86.098ZM63.1585 85.7021L62.046 83.2105L60.9335 85.7021H63.1585Z" fill="#423F3F"/>
<path d="M69.7213 87.3355L68.6588 85.8438C68.5421 85.8584 68.4182 85.8646 68.288 85.8646H67.0463V87.3355H66.5546V82.7021H68.288C68.8796 82.7021 69.3432 82.8438 69.6796 83.1271C70.015 83.4084 70.1838 83.7959 70.1838 84.2896C70.1838 84.6511 70.0921 84.9563 69.9088 85.2063C69.7255 85.4563 69.464 85.6376 69.1255 85.748L70.2546 87.3355H69.7213ZM68.2755 85.448C68.7359 85.448 69.088 85.3469 69.3296 85.1438C69.5713 84.9417 69.6921 84.6563 69.6921 84.2896C69.6921 83.9146 69.5713 83.6271 69.3296 83.4271C69.088 83.2251 68.7359 83.123 68.2755 83.123H67.0463V85.448H68.2755Z" fill="#423F3F"/>
<path d="M72.7196 82.7021H73.2113V87.3355H72.7196V82.7021Z" fill="#423F3F"/>
<path d="M79.0052 86.098H76.4218L75.8677 87.3355H75.3552L77.476 82.7021H77.9593L80.076 87.3355H79.5593L79.0052 86.098ZM78.826 85.7021L77.7135 83.2105L76.601 85.7021H78.826Z" fill="#423F3F"/>
</svg>
